<svg width="75" height="75" viewBox="0 0 75 75" fill="none" xmlns="http://www.w3.org/2000/svg">
<circle cx="37.5" cy="37.5" r="37.5" fill="#F1E5E5"/>
<path d="M52.6875 23.2292C48.7917 19.3125 43.6042 17.1667 38.0833 17.1667C26.7083 17.1667 17.4375 26.4375 17.4375 37.8125C17.4375 41.4583 18.3958 45 20.1875 48.125L17.2708 58.8333L28.2083 55.9583C31.2291 57.6042 34.625 58.4792 38.0833 58.4792C49.4583 58.4792 58.7292 49.2083 58.7292 37.8333C58.7292 32.3125 56.5833 27.125 52.6875 23.2292ZM38.0833 54.9792C35 54.9792 31.9791 54.1458 29.3333 52.5833L28.7083 52.2083L22.2083 53.9167L23.9375 47.5833L23.5208 46.9375C21.8125 44.2083 20.8958 41.0417 20.8958 37.8125C20.8958 28.3542 28.6041 20.6458 38.0625 20.6458C42.6458 20.6458 46.9583 22.4375 50.1875 25.6875C53.4375 28.9375 55.2083 33.25 55.2083 37.8333C55.25 47.2917 47.5417 54.9792 38.0833 54.9792ZM47.5 42.1458C46.9792 41.8958 44.4375 40.6458 43.9792 40.4583C43.5 40.2917 43.1667 40.2083 42.8125 40.7083C42.4583 41.2292 41.4792 42.3958 41.1875 42.7292C40.8958 43.0833 40.5833 43.125 40.0625 42.8542C39.5416 42.6042 37.875 42.0417 35.9166 40.2917C34.375 38.9167 33.3541 37.2292 33.0416 36.7083C32.75 36.1875 33 35.9167 33.2708 35.6458C33.5 35.4167 33.7917 35.0417 34.0417 34.75C34.2917 34.4583 34.3958 34.2292 34.5625 33.8958C34.7292 33.5417 34.6458 33.25 34.5208 33C34.3958 32.75 33.3541 30.2083 32.9375 29.1667C32.5208 28.1667 32.0833 28.2917 31.7708 28.2708C31.4583 28.2708 31.125 28.2708 30.7708 28.2708C30.4166 28.2708 29.875 28.3958 29.3958 28.9167C28.9375 29.4375 27.6041 30.6875 27.6041 33.2292C27.6041 35.7708 29.4583 38.2292 29.7083 38.5625C29.9583 38.9167 33.3541 44.125 38.5208 46.3542C39.75 46.8958 40.7083 47.2083 41.4583 47.4375C42.6875 47.8333 43.8125 47.7708 44.7083 47.6458C45.7083 47.5 47.7708 46.3958 48.1875 45.1875C48.625 43.9792 48.625 42.9583 48.4792 42.7292C48.3333 42.5 48.0208 42.3958 47.5 42.1458Z" fill="black"/>
</svg>
