<svg width="53" height="45" viewBox="0 0 53 45" fill="none" xmlns="http://www.w3.org/2000/svg">
<g filter="url(#filter0_d)">
<path d="M11.5 24.375C13.5625 24.375 15.25 22.6875 15.25 20.625C15.25 18.5625 13.5625 16.875 11.5 16.875C9.4375 16.875 7.75 18.5625 7.75 20.625C7.75 22.6875 9.4375 24.375 11.5 24.375ZM13.6188 26.4375C12.925 26.325 12.2312 26.25 11.5 26.25C9.64375 26.25 7.88125 26.6438 6.2875 27.3375C4.9 27.9375 4 29.2875 4 30.8063V33.75H12.4375V30.7312C12.4375 29.175 12.8688 27.7125 13.6188 26.4375ZM41.5 24.375C43.5625 24.375 45.25 22.6875 45.25 20.625C45.25 18.5625 43.5625 16.875 41.5 16.875C39.4375 16.875 37.75 18.5625 37.75 20.625C37.75 22.6875 39.4375 24.375 41.5 24.375ZM49 30.8063C49 29.2875 48.1 27.9375 46.7125 27.3375C45.1188 26.6438 43.3563 26.25 41.5 26.25C40.7687 26.25 40.075 26.325 39.3813 26.4375C40.1313 27.7125 40.5625 29.175 40.5625 30.7312V33.75H49V30.8063ZM34.45 25.5937C32.2563 24.6187 29.5562 23.9062 26.5 23.9062C23.4438 23.9062 20.7437 24.6375 18.55 25.5937C16.525 26.4937 15.25 28.5187 15.25 30.7312V33.75H37.75V30.7312C37.75 28.5187 36.475 26.4937 34.45 25.5937ZM19.1312 30C19.3 29.5688 19.375 29.2688 20.8375 28.7063C22.6562 27.9938 24.5688 27.6562 26.5 27.6562C28.4312 27.6562 30.3438 27.9938 32.1625 28.7063C33.6063 29.2688 33.6812 29.5688 33.8688 30H19.1312ZM26.5 15C27.5312 15 28.375 15.8438 28.375 16.875C28.375 17.9062 27.5312 18.75 26.5 18.75C25.4688 18.75 24.625 17.9062 24.625 16.875C24.625 15.8438 25.4688 15 26.5 15ZM26.5 11.25C23.3875 11.25 20.875 13.7625 20.875 16.875C20.875 19.9875 23.3875 22.5 26.5 22.5C29.6125 22.5 32.125 19.9875 32.125 16.875C32.125 13.7625 29.6125 11.25 26.5 11.25Z" fill="#55A9B1"/>
</g>
<defs>
<filter id="filter0_d" x="0" y="0" width="53" height="53" filterUnits="userSpaceOnUse" color-interpolation-filters="sRGB">
<feFlood flood-opacity="0" result="BackgroundImageFix"/>
<feColorMatrix in="SourceAlpha" type="matrix" values="0 0 0 0 0 0 0 0 0 0 0 0 0 0 0 0 0 0 127 0" result="hardAlpha"/>
<feOffset dy="4"/>
<feGaussianBlur stdDeviation="2"/>
<feComposite in2="hardAlpha" operator="out"/>
<feColorMatrix type="matrix" values="0 0 0 0 0 0 0 0 0 0 0 0 0 0 0 0 0 0 0.25 0"/>
<feBlend mode="normal" in2="BackgroundImageFix" result="effect1_dropShadow"/>
<feBlend mode="normal" in="SourceGraphic" in2="effect1_dropShadow" result="shape"/>
</filter>
</defs>
</svg>
