<svg width="583" height="389" viewBox="0 0 583 389" fill="none" xmlns="http://www.w3.org/2000/svg">
<path d="M487.118 59.8146L442.144 60.2346C440.03 50.2587 432.927 24.0835 439.324 16.9439C439.616 14.2568 440.977 11.7809 443.125 10.0318C445.273 8.28272 448.042 7.39511 450.855 7.55376C457.826 -2.9058 469.437 -1.33536 477.284 5.19709C485.182 7.80933 488.159 12.4501 487.118 18.7479C492.967 23.6555 494.046 29.6263 491.42 36.4229L487.118 59.8146Z" fill="#2F2E41"/>
<path d="M482.788 86.3722L450.341 82.0655L443.852 72.9737C452.791 67.2896 455.954 59.3504 451.839 48.5693L474.302 48.0908C473.25 57.6915 476.562 65.125 485.784 69.6241L482.788 86.3722Z" fill="#FFB9B9"/>
<path d="M442.67 366.919L441.429 383.178C441.373 383.914 441.481 384.653 441.748 385.345C442.014 386.037 442.431 386.667 442.972 387.192C443.513 387.717 444.165 388.125 444.884 388.389C445.603 388.653 446.372 388.766 447.141 388.722L455.853 388.216C456.257 388.192 456.65 388.084 457.005 387.898C457.36 387.713 457.668 387.454 457.907 387.142C458.146 386.829 458.31 386.47 458.388 386.089C458.466 385.709 458.456 385.317 458.358 384.941L453.522 366.398L442.67 366.919Z" fill="#E6E6E6"/>
<path d="M470.875 366.398L466.039 384.941C465.941 385.317 465.93 385.709 466.008 386.089C466.086 386.47 466.25 386.829 466.489 387.142C466.729 387.454 467.037 387.713 467.392 387.898C467.747 388.084 468.14 388.192 468.544 388.216L477.256 388.722C478.024 388.766 478.794 388.653 479.513 388.389C480.231 388.125 480.883 387.717 481.424 387.192C481.965 386.667 482.383 386.037 482.649 385.345C482.915 384.653 483.024 383.914 482.967 383.178L481.727 366.919L470.875 366.398Z" fill="#E6E6E6"/>
<path d="M482.289 369.176L470.532 368.045L458.828 248.111L454.404 367.658L442.853 367.262L423.385 201.695H497.764L482.289 369.176Z" fill="#55A9B1"/>
<path d="M464.318 56.2257C476.725 56.2257 486.782 46.5849 486.782 34.6924C486.782 22.8 476.725 13.1592 464.318 13.1592C451.912 13.1592 441.855 22.8 441.855 34.6924C441.855 46.5849 451.912 56.2257 464.318 56.2257Z" fill="#FFB9B9"/>
<path d="M508.746 205.523L417.894 206.48C431.377 157.278 439.442 111.573 425.381 80.1516L447.845 69.6243C458.676 80.4539 470.739 79.3374 483.787 68.6672L505.252 73.9309C501.576 115.135 503.223 159.264 508.746 205.523Z" fill="#55A9B1"/>
<path d="M392.934 154.8L449.343 176.333L461.954 179.889C462.518 180.048 463.11 180.096 463.694 180.03C464.278 179.965 464.842 179.786 465.352 179.506C465.863 179.226 466.309 178.85 466.664 178.401C467.019 177.952 467.275 177.438 467.418 176.891C467.668 175.932 467.555 174.92 467.101 174.033C466.646 173.146 465.878 172.442 464.934 172.046L451.839 168.199L412.403 146.187L420.639 125.371L403.417 116.519L392.934 154.8Z" fill="#FFB9B9"/>
<path d="M393.433 115.562C404.166 119.575 412.702 126.425 419.391 135.66L440.357 106.47L425.382 80.1516L393.433 115.562Z" fill="#55A9B1"/>
<path d="M489.636 31.2027C480.519 28.9508 471.555 28.6417 462.841 31.4979C457.29 34.075 450.624 33.8375 443.211 31.7142V10.2305L483.233 11.2535L489.636 31.2027Z" fill="#2F2E41"/>
<path d="M449.155 129.711C447.391 129.713 445.7 130.386 444.453 131.581C443.206 132.777 442.504 134.398 442.502 136.089L445.128 188.785C445.13 190.476 445.832 192.097 447.079 193.293C448.327 194.488 450.018 195.161 451.782 195.163H481.806C483.57 195.161 485.261 194.488 486.509 193.293C487.756 192.097 488.457 190.476 488.459 188.785L491.086 136.089C491.084 134.398 490.382 132.777 489.135 131.581C487.887 130.386 486.196 129.713 484.432 129.711H449.155Z" fill="#3F3D56"/>
<path d="M534.344 150.819L485.177 169.586L481.467 171.002C481.349 171.046 481.231 171.084 481.106 171.122L468.678 174.627C467.089 175.074 464.89 173.022 463.603 171.606C462.966 170.924 462.605 170.045 462.586 169.13C462.567 168.214 462.89 167.322 463.498 166.616C463.67 166.426 463.859 166.251 464.063 166.093C464.542 165.736 465.106 165.498 465.704 165.401L478.119 163.06C478.564 162.976 478.992 162.823 479.386 162.607L485.177 159.372L515.239 142.594C516.075 142.128 516.712 141.393 517.035 140.519C517.359 139.646 517.348 138.69 517.005 137.823L511.267 123.317C510.916 122.43 510.913 121.449 511.259 120.56C511.606 119.671 512.279 118.933 513.152 118.484L522.658 113.6C523.201 113.32 523.804 113.163 524.42 113.139C525.036 113.115 525.649 113.225 526.215 113.461C526.78 113.698 527.281 114.054 527.682 114.503C528.083 114.952 528.372 115.483 528.528 116.054L536.78 146.187C537.034 147.111 536.926 148.092 536.478 148.946C536.029 149.799 535.27 150.465 534.344 150.819Z" fill="#FFB9B9"/>
<path d="M537.2 110.298C526.468 114.312 517.932 121.161 511.242 130.396L490.276 101.206L505.252 73.9309L537.2 110.298Z" fill="#55A9B1"/>
<path d="M479.268 53.8581C469.441 57.7765 459.137 57.6174 448.411 53.8581C451.532 48.7516 446.867 44.7523 444.472 39.5974L484.52 38.4565C481.458 42.9347 476.939 48.2256 479.268 53.8581Z" fill="white"/>
<path d="M484.096 39.3087L483.631 38.8638L484.288 38.2345L488.21 33.8467L488.709 34.2558L484.77 38.6611L484.096 39.3087Z" fill="white"/>
<path d="M441.728 36.6415L441.307 37.1252L445.246 40.272L445.667 39.7882L441.728 36.6415Z" fill="white"/>
<path d="M485.228 43.0087L478.332 53.3918L478.886 53.7299L485.782 43.3467L485.228 43.0087Z" fill="white"/>
<path d="M442.451 43.0077L441.897 43.3457L448.791 53.7298L449.345 53.3919L442.451 43.0077Z" fill="white"/>
<path d="M486.49 158.482V169.883L482.349 171.464C482.217 171.513 482.085 171.555 481.946 171.598L468.073 175.51C466.3 176.009 463.845 173.719 462.409 172.138C461.697 171.377 461.295 170.396 461.273 169.374C461.251 168.352 461.613 167.356 462.291 166.568C462.483 166.356 462.694 166.161 462.922 165.985C463.456 165.586 464.086 165.32 464.754 165.212L478.612 162.599C479.109 162.505 479.587 162.334 480.026 162.093L486.49 158.482Z" fill="white"/>
<path d="M492.49 117.814H490.118C490.118 85.6481 483.209 63.232 476.476 63.232L475.883 60.9578C481.921 60.9578 485.771 70.2871 487.937 78.1138C490.873 88.7241 492.49 102.823 492.49 117.814Z" fill="#3F3D56"/>
<path d="M437.923 109.854H435.55C435.55 80.3951 442.507 62.0947 452.751 62.0947L452.158 64.369C445.072 64.369 437.923 78.4334 437.923 109.854Z" fill="#3F3D56"/>
<path d="M491.304 124.068C494.58 124.068 497.235 121.523 497.235 118.383C497.235 115.243 494.58 112.697 491.304 112.697C488.028 112.697 485.373 115.243 485.373 118.383C485.373 121.523 488.028 124.068 491.304 124.068Z" fill="#3F3D56"/>
<path d="M428.433 123.5H426.06C426.06 115.349 430.85 108.717 436.736 108.717V110.991C432.158 110.991 428.433 116.603 428.433 123.5Z" fill="#3F3D56"/>
<path d="M447.413 123.5H445.04C445.04 116.603 441.315 110.991 436.736 110.991V108.717C442.623 108.717 447.413 115.349 447.413 123.5Z" fill="#3F3D56"/>
<path d="M446.227 126.342C447.537 126.342 448.599 125.324 448.599 124.068C448.599 122.812 447.537 121.794 446.227 121.794C444.916 121.794 443.854 122.812 443.854 124.068C443.854 125.324 444.916 126.342 446.227 126.342Z" fill="#3F3D56"/>
<path d="M427.246 126.342C428.557 126.342 429.619 125.324 429.619 124.068C429.619 122.812 428.557 121.794 427.246 121.794C425.936 121.794 424.874 122.812 424.874 124.068C424.874 125.324 425.936 126.342 427.246 126.342Z" fill="#3F3D56"/>
<path d="M141.332 47.6395L99.6645 54.4034C98.6351 54.5717 97.5772 54.3681 96.6955 53.8318C95.8138 53.2956 95.171 52.4648 94.8914 51.5004C91.881 41.0852 85.587 27.4981 91.6978 20.6774C92.0091 17.808 93.463 15.1642 95.7566 13.2964C98.0503 11.4286 101.007 10.4808 104.011 10.6502C111.455 -0.518947 123.853 1.15803 132.233 8.13366C140.666 10.9231 143.846 15.8788 142.734 22.6038C146.377 25.6608 148.287 29.1041 148.69 32.8834C148.881 34.9865 148.602 37.1045 147.871 39.096C147.141 41.0875 145.975 42.9067 144.453 44.4323L141.332 47.6395Z" fill="#2F2E41"/>
<path d="M134.854 79.0846L102.552 77.2632C105.718 70.2984 106.982 63.5916 105.719 57.2278H129.787C129.732 62.1139 132.269 70.566 134.854 79.0846Z" fill="#9F616A"/>
<path d="M95.9715 365.2L94.6467 382.562C94.5867 383.348 94.7027 384.137 94.9869 384.877C95.2712 385.616 95.717 386.288 96.2947 386.849C96.8723 387.41 97.5683 387.846 98.336 388.127C99.1037 388.409 99.9254 388.53 100.746 388.482L110.049 387.942C110.48 387.917 110.9 387.801 111.279 387.603C111.658 387.405 111.987 387.129 112.243 386.795C112.498 386.461 112.673 386.077 112.757 385.671C112.84 385.265 112.829 384.846 112.724 384.445L107.56 364.645L95.9715 365.2Z" fill="#E6E6E6"/>
<path d="M126.09 364.645L120.926 384.445C120.821 384.846 120.81 385.265 120.893 385.671C120.976 386.077 121.152 386.461 121.407 386.795C121.663 387.129 121.991 387.405 122.371 387.603C122.75 387.801 123.17 387.917 123.601 387.942L132.904 388.482C133.724 388.53 134.546 388.409 135.314 388.127C136.082 387.846 136.778 387.41 137.355 386.849C137.933 386.288 138.379 385.616 138.663 384.877C138.947 384.137 139.063 383.348 139.003 382.562L137.678 365.2L126.09 364.645Z" fill="#E6E6E6"/>
<path d="M138.279 367.611L125.724 366.403L113.225 238.332L108.502 365.99L96.1674 365.566L75.3784 188.767H154.804L138.279 367.611Z" fill="#55A9B1"/>
<path d="M118.388 64.5981C131.636 64.5981 142.375 54.3033 142.375 41.604C142.375 28.9047 131.636 18.6099 118.388 18.6099C105.14 18.6099 94.4003 28.9047 94.4003 41.604C94.4003 54.3033 105.14 64.5981 118.388 64.5981Z" fill="#9F616A"/>
<path d="M145.423 30.6195C135.687 28.9942 126.115 28.771 116.81 30.8326C110.883 32.6926 103.765 32.5212 95.8487 30.9887V15.4824L138.585 16.2208L145.423 30.6195Z" fill="#2F2E41"/>
<path d="M134.352 60.0539C123.858 64.2381 112.855 64.0682 101.401 60.0539C104.734 54.6009 99.7524 50.3303 97.1949 44.8257L139.96 43.6074C136.69 48.3894 131.864 54.0391 134.352 60.0539Z" fill="white"/>
<path d="M94.2504 41.6854L93.8299 42.1692L98.0361 45.5292L98.4566 45.0454L94.2504 41.6854Z" fill="white"/>
<path d="M140.735 48.479L133.372 59.5667L133.926 59.9047L141.289 48.817L140.735 48.479Z" fill="white"/>
<path d="M95.0172 48.4787L94.4632 48.8167L101.824 59.9054L102.378 59.5674L95.0172 48.4787Z" fill="white"/>
<path d="M72.7839 146.477L54.4163 135.548L70.0806 91.5705C71.8277 87.0325 75.174 83.2224 79.5411 80.7988L84.8179 77.8704L85.2767 122.236L72.7839 146.477Z" fill="#55A9B1"/>
<path d="M152.177 167.836L149.459 145.524C149.314 133.747 151.404 122.361 156.388 111.87L158.922 79.0847L131.054 68.1562C130.968 68.7006 130.895 69.2447 130.814 69.789L117.753 76.049L105.015 73.274L105.086 69.3705L79.7509 80.299C88.1291 117.637 83.5595 156.41 69.152 202.208L102.528 210.956L102.806 195.594L132.551 193.557C132.857 198.541 133.103 203.437 133.246 208.224C150.031 214.148 150.607 214.049 165.9 205.568C159.81 193.294 154.988 180.522 152.177 167.836Z" fill="#55A9B1"/>
<path d="M195.023 141.012L177.923 135.548L150.569 105.023L158.921 79.085L196.923 130.084L195.023 141.012Z" fill="#55A9B1"/>
<path d="M141.43 164.644C141.709 165.821 142.465 166.844 143.53 167.488C144.595 168.132 145.883 168.345 147.112 168.08L161.628 164.928L159.53 156.046L145.014 159.197C143.785 159.464 142.717 160.188 142.045 161.209C141.373 162.231 141.151 163.466 141.43 164.644V164.644Z" fill="#E6E6E6"/>
<path d="M154.488 154.369L162.722 168.941C176.571 165.238 188.573 153.565 200.09 139.798L196.924 130.084L177.289 134.941L154.488 154.369Z" fill="#55A9B1"/>
<path d="M47.1324 108.663L62.9391 111.368L99.0687 160.613L79.875 156.283L47.1324 108.663Z" fill="#E6E6E6"/>
<path d="M44.3289 108.06C44.088 108.064 43.8525 108.129 43.6471 108.25C43.4416 108.37 43.2737 108.541 43.161 108.745C43.0483 108.95 42.9948 109.179 43.0062 109.41C43.0175 109.64 43.0934 109.864 43.2257 110.057L76.9973 159.174C77.1857 159.449 77.4768 159.644 77.8106 159.719L93.5235 163.263C93.7885 163.323 94.0661 163.304 94.3196 163.209C94.5731 163.114 94.7905 162.947 94.9429 162.731C95.0953 162.515 95.1756 162.26 95.1731 161.999C95.1706 161.738 95.0854 161.484 94.9288 161.27L57.8497 110.732C57.7492 110.594 57.6213 110.477 57.4734 110.387C57.3255 110.296 57.1605 110.235 56.9878 110.206L44.5821 108.082C44.4985 108.068 44.4138 108.06 44.3289 108.06Z" fill="#3F3D56"/>
<path d="M65.3957 143.179L66.3343 152.241L81.1454 150.832C82.3991 150.713 83.552 150.121 84.3505 149.187C85.149 148.253 85.5277 147.053 85.4033 145.851C85.2789 144.649 84.6615 143.544 83.687 142.779C82.7126 142.013 81.4608 141.65 80.2071 141.769L65.3957 143.179Z" fill="#E6E6E6"/>
<path d="M52.5165 142.129C52.538 145.219 53.8328 148.176 56.1185 150.355C58.4043 152.534 61.4959 153.759 64.7196 153.762H67.1551L68.9281 139.599L54.2478 134.533L52.5165 142.129Z" fill="#55A9B1"/>
<path d="M138.79 45.1742L138.326 44.7292L139.027 44.0571L143.216 39.3704L143.715 39.7794L139.508 44.4838L138.79 45.1742Z" fill="white"/>
<path d="M583 387.741H0V389H583V387.741Z" fill="#3F3D56"/>
<path d="M222.564 387.112H360.436V226.808C360.436 218.32 351.714 211.414 340.993 211.414H242.007C231.286 211.414 222.564 218.32 222.564 226.808V387.112Z" fill="#E6E6E6"/>
<path d="M233.069 380.483H349.931V244.607C349.931 237.412 342.538 231.558 333.451 231.558H249.549C240.461 231.558 233.069 237.412 233.069 244.607V380.483Z" fill="white"/>
<path d="M221.523 198.939C218.115 198.939 215.342 201.134 215.342 203.832V217.957C215.342 220.655 218.115 222.85 221.523 222.85H361.478C364.885 222.85 367.658 220.655 367.658 217.957V203.832C367.658 201.134 364.885 198.939 361.478 198.939H221.523Z" fill="#3F3D56"/>
<path d="M250.257 363.06C248.657 363.065 247.124 363.676 245.993 364.76C244.862 365.845 244.224 367.314 244.219 368.848C244.224 370.382 244.862 371.851 245.993 372.936C247.124 374.02 248.657 374.631 250.257 374.636H261.559V363.06H250.257Z" fill="#3F3D56"/>
<path d="M271.932 363.06H260.94V374.636H271.932C273.532 374.632 275.065 374.02 276.196 372.936C277.327 371.851 277.965 370.382 277.97 368.848C277.965 367.315 277.327 365.845 276.196 364.76C275.065 363.676 273.532 363.065 271.932 363.06Z" fill="#55A9B1"/>
<path opacity="0.2" d="M275.872 364.478C276.824 365.524 277.349 366.866 277.35 368.254C277.346 369.788 276.708 371.258 275.577 372.342C274.445 373.426 272.912 374.038 271.312 374.042H260.94V374.636H271.932C273.532 374.631 275.065 374.02 276.196 372.936C277.327 371.851 277.965 370.382 277.97 368.848C277.968 368.018 277.78 367.198 277.418 366.443C277.056 365.689 276.528 365.019 275.872 364.478Z" fill="black"/>
<path d="M301.257 275.88C300.156 274.767 298.641 274.117 297.041 274.072C295.442 274.026 293.889 274.59 292.722 275.638C291.561 276.694 290.883 278.146 290.835 279.679C290.788 281.212 291.376 282.701 292.47 283.82L300.222 291.703L309.009 283.763L301.257 275.88Z" fill="#3F3D56"/>
<path d="M316.124 290.999L308.584 283.331L299.797 291.271L307.337 298.939C308.438 300.052 309.953 300.702 311.553 300.747C313.152 300.792 314.705 300.229 315.872 299.18C317.033 298.125 317.711 296.672 317.759 295.139C317.806 293.606 317.218 292.118 316.124 290.999Z" fill="#55A9B1"/>
<path opacity="0.2" d="M317.751 294.719C317.609 296.101 316.951 297.388 315.898 298.341C314.731 299.39 313.178 299.953 311.579 299.908C309.979 299.863 308.464 299.212 307.363 298.1L300.248 290.864L299.797 291.271L307.337 298.939C308.438 300.052 309.953 300.702 311.553 300.747C313.152 300.792 314.705 300.229 315.872 299.18C316.501 298.61 316.995 297.916 317.319 297.146C317.643 296.376 317.791 295.548 317.751 294.719Z" fill="black"/>
<path d="M269.087 294.131C267.986 293.018 266.471 292.368 264.871 292.323C263.272 292.277 261.719 292.841 260.552 293.889C259.391 294.945 258.713 296.397 258.665 297.93C258.618 299.463 259.206 300.952 260.3 302.071L268.052 309.954L276.839 302.014L269.087 294.131Z" fill="#3F3D56"/>
<path d="M283.954 309.249L276.414 301.582L267.627 309.522L275.167 317.189C276.268 318.302 277.783 318.952 279.383 318.998C280.982 319.043 282.535 318.48 283.702 317.431C284.863 316.376 285.541 314.923 285.589 313.39C285.636 311.857 285.048 310.368 283.954 309.249Z" fill="#55A9B1"/>
<path opacity="0.2" d="M285.581 312.97C285.439 314.352 284.781 315.639 283.728 316.592C282.561 317.641 281.008 318.204 279.409 318.159C277.809 318.114 276.294 317.463 275.193 316.351L268.078 309.115L267.627 309.522L275.167 317.19C276.268 318.303 277.783 318.953 279.383 318.998C280.982 319.043 282.535 318.48 283.702 317.431C284.331 316.861 284.825 316.167 285.149 315.397C285.473 314.627 285.621 313.799 285.581 312.97Z" fill="black"/>
<path d="M301.257 311.123C300.156 310.01 298.641 309.36 297.041 309.315C295.442 309.27 293.889 309.833 292.722 310.881C291.561 311.937 290.883 313.39 290.835 314.923C290.788 316.456 291.376 317.944 292.47 319.063L300.222 326.946L309.009 319.006L301.257 311.123Z" fill="#3F3D56"/>
<path d="M316.124 326.242L308.584 318.574L299.797 326.515L307.337 334.182C308.438 335.295 309.953 335.945 311.553 335.99C313.152 336.035 314.705 335.472 315.872 334.424C317.033 333.368 317.711 331.915 317.759 330.382C317.806 328.849 317.218 327.361 316.124 326.242Z" fill="#55A9B1"/>
<path opacity="0.2" d="M317.751 329.962C317.609 331.344 316.951 332.631 315.898 333.584C314.731 334.633 313.178 335.196 311.579 335.151C309.979 335.106 308.464 334.456 307.363 333.343L300.248 326.107L299.797 326.515L307.337 334.182C308.438 335.295 309.953 335.945 311.553 335.99C313.152 336.035 314.705 335.472 315.872 334.423C316.501 333.853 316.995 333.159 317.319 332.389C317.643 331.619 317.791 330.792 317.751 329.962Z" fill="black"/>
<path d="M320.882 347.289C322.03 346.221 322.69 344.76 322.717 343.227C322.745 341.693 322.139 340.212 321.031 339.105C319.916 338.005 318.392 337.373 316.792 337.346C315.193 337.32 313.647 337.901 312.493 338.963L304.364 346.49L312.753 354.816L320.882 347.289Z" fill="#3F3D56"/>
<path d="M305.292 361.724L313.199 354.403L304.809 346.077L296.903 353.398C295.756 354.466 295.096 355.927 295.068 357.46C295.04 358.994 295.647 360.475 296.755 361.582C297.87 362.682 299.393 363.314 300.993 363.341C302.593 363.367 304.138 362.786 305.292 361.724Z" fill="#55A9B1"/>
<path opacity="0.2" d="M301.431 363.328C299.988 363.209 298.638 362.594 297.63 361.596C296.522 360.49 295.916 359.008 295.944 357.475C295.971 355.941 296.631 354.481 297.779 353.412L305.24 346.504L304.809 346.077L296.903 353.398C295.756 354.466 295.096 355.927 295.068 357.46C295.04 358.994 295.647 360.475 296.755 361.582C297.358 362.178 298.087 362.642 298.894 362.944C299.701 363.245 300.567 363.376 301.431 363.328Z" fill="black"/>
<path d="M277.551 329.039C278.699 327.97 279.359 326.509 279.386 324.976C279.414 323.443 278.808 321.961 277.7 320.855C276.585 319.755 275.061 319.122 273.461 319.096C271.862 319.069 270.316 319.65 269.162 320.712L261.033 328.239L269.422 336.565L277.551 329.039Z" fill="#3F3D56"/>
<path d="M261.961 343.473L269.868 336.153L261.478 327.826L253.572 335.147C252.424 336.215 251.765 337.676 251.737 339.209C251.709 340.743 252.316 342.224 253.424 343.331C254.539 344.431 256.062 345.063 257.662 345.09C259.262 345.116 260.807 344.535 261.961 343.473Z" fill="#55A9B1"/>
<path opacity="0.2" d="M258.1 345.077C256.657 344.958 255.307 344.343 254.299 343.345C253.191 342.239 252.585 340.757 252.613 339.224C252.64 337.69 253.3 336.23 254.448 335.161L261.909 328.253L261.478 327.826L253.572 335.147C252.424 336.215 251.765 337.676 251.737 339.209C251.709 340.743 252.316 342.224 253.424 343.331C254.026 343.927 254.756 344.391 255.563 344.693C256.37 344.994 257.236 345.125 258.1 345.077Z" fill="black"/>
<path d="M339.265 307.012C340.413 305.943 341.073 304.482 341.1 302.949C341.128 301.415 340.522 299.934 339.414 298.828C338.299 297.728 336.775 297.095 335.175 297.069C333.576 297.042 332.03 297.623 330.876 298.685L322.747 306.212L331.136 314.538L339.265 307.012Z" fill="#3F3D56"/>
<path d="M323.675 321.446L331.582 314.125L323.192 305.799L315.286 313.12C314.138 314.188 313.479 315.649 313.451 317.182C313.423 318.716 314.03 320.197 315.138 321.304C316.253 322.404 317.776 323.036 319.376 323.063C320.976 323.089 322.521 322.508 323.675 321.446Z" fill="#55A9B1"/>
<path opacity="0.2" d="M319.814 323.05C318.371 322.931 317.021 322.316 316.013 321.318C314.905 320.212 314.299 318.73 314.327 317.197C314.354 315.663 315.014 314.203 316.162 313.134L323.623 306.226L323.192 305.799L315.286 313.119C314.138 314.188 313.479 315.649 313.451 317.182C313.423 318.716 314.03 320.197 315.138 321.303C315.74 321.9 316.47 322.364 317.277 322.666C318.084 322.967 318.95 323.098 319.814 323.05Z" fill="black"/>
<path d="M325.549 352.66C324.448 351.547 322.932 350.897 321.333 350.851C319.734 350.806 318.181 351.369 317.013 352.418C315.852 353.473 315.174 354.926 315.127 356.459C315.08 357.992 315.667 359.481 316.761 360.6L324.514 368.483L333.301 360.543L325.549 352.66Z" fill="#3F3D56"/>
<path d="M340.416 367.778L332.876 360.111L324.089 368.051L331.629 375.718C332.73 376.831 334.245 377.481 335.844 377.527C337.444 377.572 338.996 377.009 340.164 375.96C341.325 374.905 342.003 373.452 342.05 371.919C342.097 370.386 341.51 368.897 340.416 367.778Z" fill="#55A9B1"/>
<path opacity="0.2" d="M342.042 371.499C341.901 372.881 341.243 374.167 340.19 375.121C339.022 376.17 337.469 376.733 335.87 376.688C334.271 376.642 332.755 375.992 331.655 374.879L324.54 367.644L324.089 368.051L331.629 375.719C332.73 376.831 334.245 377.482 335.844 377.527C337.444 377.572 338.996 377.009 340.164 375.96C340.793 375.39 341.287 374.696 341.611 373.926C341.935 373.156 342.082 372.328 342.042 371.499Z" fill="black"/>
<path d="M282.874 352.03C281.773 350.917 280.258 350.267 278.658 350.222C277.059 350.177 275.506 350.74 274.339 351.789C273.178 352.844 272.5 354.297 272.453 355.83C272.405 357.363 272.993 358.851 274.087 359.97L281.839 367.854L290.626 359.914L282.874 352.03Z" fill="#3F3D56"/>
<path d="M297.741 367.149L290.202 359.482L281.414 367.422L288.954 375.089C290.055 376.202 291.571 376.852 293.17 376.897C294.769 376.943 296.322 376.379 297.489 375.331C298.65 374.275 299.329 372.823 299.376 371.29C299.423 369.757 298.835 368.268 297.741 367.149Z" fill="#55A9B1"/>
<path opacity="0.2" d="M299.368 370.869C299.227 372.252 298.568 373.538 297.515 374.491C296.348 375.54 294.795 376.103 293.196 376.058C291.596 376.013 290.081 375.363 288.98 374.25L281.865 367.015L281.414 367.422L288.954 375.089C290.055 376.202 291.571 376.852 293.17 376.897C294.769 376.943 296.322 376.379 297.489 375.331C298.119 374.76 298.612 374.066 298.936 373.296C299.26 372.527 299.408 371.699 299.368 370.869Z" fill="black"/>
<path d="M294.886 331.266C294.887 333.191 294.194 335.056 292.924 336.546C291.655 338.037 289.887 339.062 287.92 339.446C286.771 339.669 285.587 339.669 284.437 339.446C282.47 339.061 280.703 338.037 279.434 336.546C278.164 335.055 277.471 333.19 277.471 331.266C277.471 329.342 278.164 327.477 279.434 325.986C280.703 324.496 282.47 323.471 284.437 323.086C285.587 322.864 286.771 322.864 287.92 323.086C289.887 323.471 291.655 324.495 292.924 325.986C294.194 327.477 294.887 329.342 294.886 331.266Z" fill="#55A9B1"/>
<path opacity="0.2" d="M287.92 323.086V339.446C286.771 339.669 285.587 339.669 284.437 339.446V323.086C285.587 322.864 286.771 322.864 287.92 323.086Z" fill="black"/>
<path d="M298.826 297.911C298.826 299.835 298.133 301.701 296.863 303.191C295.594 304.682 293.826 305.706 291.859 306.091C290.71 306.314 289.526 306.314 288.376 306.091C286.41 305.706 284.642 304.681 283.373 303.191C282.103 301.7 281.41 299.835 281.41 297.911C281.41 295.987 282.103 294.122 283.373 292.631C284.642 291.141 286.41 290.116 288.376 289.731C289.526 289.508 290.71 289.508 291.859 289.731C293.826 290.116 295.594 291.14 296.863 292.631C298.133 294.121 298.826 295.987 298.826 297.911Z" fill="#55A9B1"/>
<path opacity="0.2" d="M291.859 289.731V306.091C290.71 306.314 289.526 306.314 288.376 306.091V289.731C289.526 289.508 290.71 289.508 291.859 289.731Z" fill="black"/>
<path d="M298.826 345.741C298.826 347.665 298.133 349.531 296.863 351.021C295.594 352.512 293.826 353.536 291.859 353.921C290.71 354.144 289.526 354.144 288.376 353.921C286.41 353.536 284.642 352.511 283.373 351.021C282.103 349.53 281.41 347.665 281.41 345.741C281.41 343.817 282.103 341.952 283.373 340.461C284.642 338.971 286.41 337.946 288.376 337.561C289.526 337.338 290.71 337.338 291.859 337.561C293.826 337.946 295.594 338.97 296.863 340.461C298.133 341.952 298.826 343.817 298.826 345.741Z" fill="#55A9B1"/>
<path opacity="0.2" d="M291.859 337.561V353.921C290.71 354.144 289.526 354.144 288.376 353.921V337.561C289.526 337.338 290.71 337.338 291.859 337.561Z" fill="black"/>
<path d="M320.491 369.027C320.491 370.951 319.798 372.816 318.529 374.307C317.259 375.798 315.492 376.822 313.525 377.207C312.375 377.429 311.191 377.429 310.042 377.207C308.075 376.822 306.308 375.797 305.038 374.307C303.769 372.816 303.076 370.951 303.076 369.027C303.076 367.103 303.769 365.237 305.038 363.747C306.308 362.256 308.075 361.232 310.042 360.847C311.191 360.624 312.375 360.624 313.525 360.847C315.492 361.231 317.259 362.256 318.529 363.747C319.798 365.237 320.491 367.102 320.491 369.027Z" fill="#55A9B1"/>
<path opacity="0.2" d="M313.525 360.847V377.207C312.375 377.429 311.191 377.429 310.042 377.207V360.847C311.191 360.624 312.375 360.624 313.525 360.847Z" fill="black"/>
<path d="M339.63 326.184C341.076 327.519 341.996 329.292 342.234 331.202C342.473 333.113 342.016 335.044 340.94 336.669C340.309 337.616 339.488 338.434 338.523 339.072C336.869 340.163 334.872 340.671 332.872 340.513C330.871 340.355 328.989 339.539 327.544 338.204C326.099 336.868 325.179 335.095 324.941 333.185C324.702 331.274 325.159 329.344 326.234 327.719C326.865 326.771 327.687 325.954 328.652 325.315C330.306 324.225 332.302 323.715 334.302 323.874C336.303 324.032 338.185 324.848 339.63 326.184Z" fill="#55A9B1"/>
<path opacity="0.2" d="M328.652 325.315L340.94 336.669C340.309 337.616 339.488 338.434 338.523 339.073L326.234 327.719C326.865 326.771 327.687 325.954 328.652 325.315Z" fill="black"/>
<path d="M342.256 344.435C343.702 345.77 344.622 347.543 344.86 349.453C345.099 351.364 344.642 353.295 343.566 354.919C342.936 355.867 342.114 356.684 341.149 357.323C339.495 358.413 337.499 358.922 335.498 358.764C333.498 358.606 331.616 357.79 330.17 356.454C328.725 355.119 327.805 353.346 327.567 351.436C327.328 349.525 327.785 347.594 328.86 345.97C329.491 345.022 330.313 344.205 331.278 343.566C332.932 342.475 334.928 341.966 336.928 342.125C338.929 342.283 340.811 343.099 342.256 344.435Z" fill="#55A9B1"/>
<path opacity="0.2" d="M331.278 343.566L343.566 354.919C342.936 355.867 342.114 356.684 341.149 357.323L328.861 345.97C329.491 345.022 330.313 344.205 331.278 343.566Z" fill="black"/>
<path d="M264.129 348.84C265.575 350.175 266.495 351.948 266.733 353.859C266.972 355.769 266.515 357.7 265.439 359.325C264.808 360.273 263.986 361.09 263.022 361.729C261.367 362.819 259.371 363.328 257.371 363.169C255.37 363.011 253.488 362.195 252.043 360.86C250.598 359.525 249.678 357.752 249.439 355.841C249.201 353.931 249.658 352 250.733 350.375C251.364 349.427 252.186 348.61 253.15 347.971C254.804 346.881 256.801 346.372 258.801 346.53C260.802 346.688 262.684 347.504 264.129 348.84Z" fill="#55A9B1"/>
<path opacity="0.2" d="M253.15 347.971L265.439 359.325C264.808 360.273 263.986 361.09 263.022 361.729L250.733 350.375C251.364 349.427 252.186 348.61 253.15 347.971Z" fill="black"/>
<path opacity="0.2" d="M236.023 198.939H232.74V222.224H236.023V198.939Z" fill="black"/>
<path opacity="0.2" d="M255.062 198.939H251.78V222.224H255.062V198.939Z" fill="black"/>
<path opacity="0.2" d="M274.102 198.939H270.819V222.224H274.102V198.939Z" fill="black"/>
<path opacity="0.2" d="M293.141 198.939H289.859V222.224H293.141V198.939Z" fill="black"/>
<path opacity="0.2" d="M312.181 198.939H308.898V222.224H312.181V198.939Z" fill="black"/>
<path opacity="0.2" d="M331.22 198.939H327.938V222.224H331.22V198.939Z" fill="black"/>
<path opacity="0.2" d="M350.26 198.939H346.977V222.224H350.26V198.939Z" fill="black"/>
</svg>
