<svg width="591" height="397" viewBox="0 0 591 397" fill="none" xmlns="http://www.w3.org/2000/svg">
<g filter="url(#filter0_d)">
<path d="M491.118 59.8146L446.144 60.2346C444.03 50.2587 436.927 24.0835 443.324 16.9439C443.616 14.2568 444.977 11.781 447.125 10.0318C449.273 8.28274 452.042 7.39513 454.855 7.55377C461.826 -2.90578 473.437 -1.33535 481.284 5.1971C489.182 7.80934 492.159 12.4501 491.118 18.7479C496.967 23.6555 498.046 29.6263 495.42 36.4229L491.118 59.8146Z" fill="#2F2E41"/>
<path d="M486.788 86.3723L454.341 82.0656L447.852 72.9738C456.791 67.2897 459.954 59.3505 455.839 48.5695L478.302 48.0909C477.25 57.6916 480.562 65.1251 489.784 69.6242L486.788 86.3723Z" fill="#FFB9B9"/>
<path d="M446.67 366.919L445.429 383.178C445.373 383.914 445.481 384.653 445.748 385.345C446.014 386.037 446.431 386.667 446.972 387.192C447.513 387.717 448.165 388.125 448.884 388.389C449.603 388.653 450.372 388.766 451.141 388.722L459.853 388.216C460.257 388.192 460.65 388.084 461.005 387.898C461.36 387.713 461.668 387.454 461.907 387.142C462.146 386.829 462.31 386.47 462.388 386.089C462.466 385.709 462.456 385.317 462.358 384.94L457.522 366.398L446.67 366.919Z" fill="#E6E6E6"/>
<path d="M474.875 366.398L470.039 384.941C469.941 385.317 469.93 385.709 470.008 386.089C470.086 386.47 470.25 386.829 470.489 387.142C470.729 387.454 471.037 387.713 471.392 387.898C471.747 388.084 472.14 388.192 472.544 388.216L481.256 388.722C482.024 388.766 482.794 388.653 483.513 388.389C484.231 388.125 484.883 387.717 485.424 387.192C485.965 386.667 486.383 386.037 486.649 385.345C486.915 384.653 487.024 383.914 486.967 383.178L485.727 366.919L474.875 366.398Z" fill="#E6E6E6"/>
<path d="M486.289 369.176L474.532 368.045L462.828 248.111L458.404 367.658L446.853 367.262L427.385 201.695H501.764L486.289 369.176Z" fill="white"/>
<path d="M468.318 56.2257C480.725 56.2257 490.782 46.585 490.782 34.6925C490.782 22.8 480.725 13.1592 468.318 13.1592C455.912 13.1592 445.855 22.8 445.855 34.6925C445.855 46.585 455.912 56.2257 468.318 56.2257Z" fill="#FFB9B9"/>
<path d="M512.746 205.523L421.894 206.48C435.377 157.277 443.442 111.573 429.381 80.1516L451.845 69.6242C462.676 80.4538 474.739 79.3373 487.787 68.6672L509.252 73.9309C505.576 115.135 507.223 159.264 512.746 205.523Z" fill="white"/>
<path d="M396.934 154.8L453.343 176.333L465.954 179.889C466.518 180.048 467.11 180.096 467.694 180.031C468.278 179.965 468.842 179.787 469.352 179.507C469.863 179.227 470.309 178.851 470.664 178.401C471.019 177.952 471.275 177.438 471.418 176.891C471.668 175.933 471.555 174.92 471.101 174.033C470.646 173.146 469.878 172.442 468.934 172.046L455.839 168.199L416.403 146.187L424.639 125.371L407.417 116.519L396.934 154.8Z" fill="#FFB9B9"/>
<path d="M397.433 115.562C408.166 119.575 416.702 126.425 423.391 135.66L444.357 106.47L429.382 80.1516L397.433 115.562Z" fill="white"/>
<path d="M493.636 31.2026C484.519 28.9507 475.555 28.6416 466.841 31.4979C461.29 34.0749 454.624 33.8374 447.211 31.7141V10.2304L487.233 11.2534L493.636 31.2026Z" fill="#2F2E41"/>
<path d="M453.155 129.711C451.391 129.713 449.7 130.386 448.453 131.581C447.206 132.777 446.504 134.398 446.502 136.089L449.128 188.785C449.13 190.476 449.832 192.097 451.079 193.293C452.327 194.488 454.018 195.161 455.782 195.163H485.806C487.57 195.161 489.261 194.488 490.509 193.293C491.756 192.097 492.457 190.476 492.459 188.785L495.086 136.089C495.084 134.398 494.382 132.777 493.135 131.581C491.887 130.386 490.196 129.713 488.432 129.711H453.155Z" fill="#3F3D56"/>
<path d="M538.344 150.819L489.177 169.586L485.467 171.002C485.349 171.046 485.231 171.084 485.106 171.122L472.678 174.627C471.089 175.074 468.89 173.022 467.603 171.606C466.966 170.924 466.605 170.045 466.586 169.13C466.567 168.214 466.89 167.322 467.498 166.616C467.67 166.426 467.859 166.251 468.063 166.093C468.542 165.736 469.106 165.498 469.704 165.401L482.119 163.06C482.564 162.976 482.992 162.823 483.386 162.607L489.177 159.372L519.239 142.594C520.075 142.128 520.712 141.393 521.035 140.519C521.359 139.646 521.348 138.69 521.005 137.823L515.267 123.317C514.916 122.429 514.913 121.449 515.259 120.56C515.606 119.671 516.279 118.933 517.152 118.484L526.658 113.6C527.201 113.32 527.804 113.163 528.42 113.139C529.036 113.115 529.649 113.225 530.215 113.461C530.78 113.698 531.281 114.054 531.682 114.503C532.083 114.952 532.372 115.483 532.528 116.054L540.78 146.187C541.034 147.111 540.926 148.092 540.478 148.946C540.029 149.799 539.27 150.465 538.344 150.819Z" fill="#FFB9B9"/>
<path d="M541.2 110.298C530.468 114.312 521.932 121.161 515.242 130.396L494.276 101.206L509.252 73.9309L541.2 110.298Z" fill="white"/>
<path d="M483.268 53.8582C473.441 57.7766 463.137 57.6175 452.411 53.8582C455.532 48.7517 450.867 44.7523 448.472 39.5974L488.52 38.4566C485.458 42.9348 480.939 48.2256 483.268 53.8582Z" fill="white"/>
<path d="M488.096 39.3087L487.631 38.8637L488.288 38.2344L492.21 33.8466L492.709 34.2557L488.77 38.6611L488.096 39.3087Z" fill="white"/>
<path d="M445.728 36.6415L445.307 37.1252L449.246 40.2719L449.667 39.7882L445.728 36.6415Z" fill="white"/>
<path d="M489.228 43.0086L482.332 53.3918L482.886 53.7298L489.782 43.3466L489.228 43.0086Z" fill="white"/>
<path d="M446.451 43.0078L445.897 43.3458L452.791 53.7299L453.345 53.392L446.451 43.0078Z" fill="white"/>
<path d="M490.49 158.482V169.883L486.349 171.464C486.217 171.513 486.085 171.555 485.946 171.597L472.073 175.51C470.3 176.009 467.845 173.719 466.409 172.138C465.697 171.377 465.295 170.396 465.273 169.374C465.251 168.352 465.613 167.356 466.291 166.568C466.483 166.356 466.694 166.161 466.922 165.984C467.456 165.586 468.086 165.32 468.754 165.212L482.612 162.598C483.109 162.505 483.587 162.334 484.026 162.093L490.49 158.482Z" fill="white"/>
<path d="M496.49 117.814H494.118C494.118 85.648 487.209 63.2319 480.476 63.2319L479.883 60.9577C485.921 60.9577 489.771 70.287 491.937 78.1137C494.873 88.724 496.49 102.823 496.49 117.814Z" fill="#3F3D56"/>
<path d="M441.923 109.854H439.55C439.55 80.3952 446.507 62.0948 456.751 62.0948L456.158 64.3691C449.072 64.3691 441.923 78.4335 441.923 109.854Z" fill="#3F3D56"/>
<path d="M495.304 124.068C498.58 124.068 501.235 121.523 501.235 118.383C501.235 115.242 498.58 112.697 495.304 112.697C492.028 112.697 489.373 115.242 489.373 118.383C489.373 121.523 492.028 124.068 495.304 124.068Z" fill="#3F3D56"/>
<path d="M432.433 123.5H430.06C430.06 115.348 434.85 108.717 440.736 108.717V110.991C436.158 110.991 432.433 116.602 432.433 123.5Z" fill="#3F3D56"/>
<path d="M451.413 123.5H449.04C449.04 116.602 445.315 110.991 440.736 110.991V108.717C446.623 108.717 451.413 115.348 451.413 123.5Z" fill="#3F3D56"/>
<path d="M450.227 126.342C451.537 126.342 452.599 125.324 452.599 124.068C452.599 122.812 451.537 121.794 450.227 121.794C448.916 121.794 447.854 122.812 447.854 124.068C447.854 125.324 448.916 126.342 450.227 126.342Z" fill="#3F3D56"/>
<path d="M431.246 126.342C432.557 126.342 433.619 125.324 433.619 124.068C433.619 122.812 432.557 121.794 431.246 121.794C429.936 121.794 428.874 122.812 428.874 124.068C428.874 125.324 429.936 126.342 431.246 126.342Z" fill="#3F3D56"/>
<path d="M145.332 47.6396L103.664 54.4035C102.635 54.5718 101.577 54.3682 100.696 53.8319C99.8138 53.2957 99.171 52.465 98.8914 51.5005C95.881 41.0853 89.587 27.4982 95.6978 20.6775C96.0091 17.8081 97.4629 15.1643 99.7566 13.2965C102.05 11.4288 105.007 10.4809 108.011 10.6503C115.455 -0.518825 127.853 1.15815 136.233 8.13378C144.666 10.9232 147.846 15.8789 146.734 22.6039C150.377 25.6609 152.287 29.1042 152.69 32.8835C152.881 34.9866 152.602 37.1046 151.871 39.0961C151.141 41.0876 149.975 42.9069 148.453 44.4324L145.332 47.6396Z" fill="#2F2E41"/>
<path d="M138.854 79.0847L106.552 77.2633C109.718 70.2984 110.982 63.5916 109.719 57.2278H133.787C133.732 62.1139 136.269 70.566 138.854 79.0847Z" fill="#9F616A"/>
<path d="M99.9715 365.2L98.6467 382.562C98.5867 383.348 98.7027 384.137 98.9869 384.877C99.2712 385.616 99.717 386.289 100.295 386.849C100.872 387.41 101.568 387.846 102.336 388.127C103.104 388.409 103.925 388.53 104.746 388.482L114.049 387.942C114.48 387.917 114.9 387.801 115.279 387.603C115.658 387.405 115.987 387.129 116.243 386.795C116.498 386.461 116.673 386.078 116.757 385.671C116.84 385.265 116.829 384.846 116.724 384.445L111.56 364.645L99.9715 365.2Z" fill="#E6E6E6"/>
<path d="M130.09 364.645L124.926 384.445C124.821 384.846 124.81 385.265 124.893 385.671C124.976 386.078 125.152 386.461 125.407 386.795C125.663 387.129 125.991 387.405 126.371 387.603C126.75 387.801 127.17 387.917 127.601 387.942L136.904 388.482C137.724 388.53 138.546 388.409 139.314 388.127C140.082 387.846 140.778 387.41 141.355 386.849C141.933 386.289 142.379 385.616 142.663 384.877C142.947 384.137 143.063 383.348 143.003 382.562L141.678 365.2L130.09 364.645Z" fill="#E6E6E6"/>
<path d="M142.279 367.611L129.724 366.403L117.225 238.332L112.502 365.99L100.167 365.566L79.3784 188.767H158.804L142.279 367.611Z" fill="white"/>
<path d="M122.388 64.5981C135.636 64.5981 146.375 54.3033 146.375 41.604C146.375 28.9047 135.636 18.6099 122.388 18.6099C109.14 18.6099 98.4003 28.9047 98.4003 41.604C98.4003 54.3033 109.14 64.5981 122.388 64.5981Z" fill="#9F616A"/>
<path d="M149.423 30.6194C139.687 28.9941 130.115 28.7709 120.81 30.8325C114.883 32.6925 107.765 32.5211 99.8488 30.9886V15.4823L142.585 16.2207L149.423 30.6194Z" fill="#2F2E41"/>
<path d="M138.352 60.0538C127.858 64.238 116.854 64.0681 105.401 60.0538C108.734 54.6009 103.752 50.3302 101.195 44.8256L143.96 43.6074C140.69 48.3893 135.864 54.0391 138.352 60.0538Z" fill="white"/>
<path d="M98.2504 41.6854L97.8299 42.1692L102.036 45.5292L102.457 45.0454L98.2504 41.6854Z" fill="white"/>
<path d="M144.735 48.4791L137.372 59.5668L137.926 59.9048L145.289 48.8171L144.735 48.4791Z" fill="white"/>
<path d="M99.0172 48.4786L98.4632 48.8165L105.824 59.9053L106.378 59.5673L99.0172 48.4786Z" fill="white"/>
<path d="M76.7839 146.477L58.4163 135.548L74.0806 91.5705C75.8277 87.0326 79.1741 83.2224 83.5411 80.7988L88.8179 77.8704L89.2767 122.236L76.7839 146.477Z" fill="white"/>
<path d="M156.177 167.836L153.459 145.524C153.314 133.747 155.404 122.361 160.388 111.87L162.922 79.0846L135.053 68.1562C134.968 68.7006 134.895 69.2446 134.814 69.7889L121.753 76.049L109.015 73.2739L109.085 69.3705L83.7509 80.299C92.129 117.637 87.5594 156.41 73.152 202.208L106.528 210.956L106.806 195.594L136.551 193.557C136.857 198.541 137.103 203.437 137.246 208.224C154.031 214.148 154.607 214.049 169.9 205.568C163.81 193.294 158.988 180.522 156.177 167.836Z" fill="white"/>
<path d="M199.023 141.012L181.923 135.548L154.569 105.023L162.921 79.085L200.923 130.084L199.023 141.012Z" fill="white"/>
<path d="M145.43 164.644C145.709 165.821 146.465 166.844 147.53 167.488C148.595 168.132 149.883 168.345 151.112 168.08L165.628 164.929L163.53 156.046L149.014 159.197C147.785 159.464 146.717 160.188 146.045 161.209C145.373 162.231 145.151 163.466 145.43 164.644V164.644Z" fill="#E6E6E6"/>
<path d="M158.488 154.369L166.722 168.941C180.571 165.238 192.573 153.565 204.09 139.798L200.924 130.084L181.289 134.941L158.488 154.369Z" fill="white"/>
<path d="M51.1324 108.663L66.939 111.368L103.069 160.612L83.8749 156.283L51.1324 108.663Z" fill="#E6E6E6"/>
<path d="M48.3288 108.06C48.088 108.063 47.8525 108.129 47.647 108.249C47.4416 108.37 47.2737 108.541 47.161 108.745C47.0482 108.949 46.9948 109.179 47.0061 109.409C47.0175 109.64 47.0934 109.864 47.2257 110.057L80.9973 159.174C81.1857 159.449 81.4768 159.644 81.8106 159.719L97.5235 163.263C97.7884 163.323 98.0661 163.304 98.3196 163.209C98.5731 163.114 98.7905 162.947 98.9429 162.731C99.0953 162.515 99.1756 162.259 99.1731 161.999C99.1706 161.738 99.0854 161.484 98.9288 161.27L61.8497 110.732C61.7491 110.594 61.6213 110.477 61.4734 110.387C61.3255 110.296 61.1605 110.235 60.9878 110.206L48.5821 108.082C48.4985 108.068 48.4138 108.06 48.3288 108.06Z" fill="#3F3D56"/>
<path d="M69.3957 143.179L70.3343 152.241L85.1454 150.832C86.3991 150.713 87.552 150.121 88.3505 149.187C89.149 148.253 89.5277 147.053 89.4033 145.851C89.2789 144.649 88.6615 143.544 87.687 142.779C86.7126 142.013 85.4608 141.65 84.2071 141.769L69.3957 143.179Z" fill="#E6E6E6"/>
<path d="M56.5165 142.129C56.5381 145.219 57.8328 148.176 60.1186 150.355C62.4043 152.534 65.4959 153.759 68.7196 153.762H71.1551L72.9281 139.599L58.2478 134.533L56.5165 142.129Z" fill="white"/>
<path d="M142.79 45.1742L142.326 44.7292L143.027 44.0571L147.216 39.3704L147.715 39.7794L143.508 44.4838L142.79 45.1742Z" fill="white"/>
<path d="M587 387.741H4V389H587V387.741Z" fill="#3F3D56"/>
<path d="M226.564 387.112H364.436V226.808C364.436 218.32 355.714 211.414 344.993 211.414H246.007C235.286 211.414 226.564 218.32 226.564 226.808V387.112Z" fill="#E6E6E6"/>
<path d="M237.069 380.483H353.931V244.607C353.931 237.412 346.538 231.558 337.451 231.558H253.549C244.461 231.558 237.069 237.412 237.069 244.607V380.483Z" fill="white"/>
<path d="M225.523 198.939C222.115 198.939 219.342 201.134 219.342 203.832V217.957C219.342 220.655 222.115 222.85 225.523 222.85H365.478C368.885 222.85 371.658 220.655 371.658 217.957V203.832C371.658 201.134 368.885 198.939 365.478 198.939H225.523Z" fill="#3F3D56"/>
<path d="M254.257 363.06C252.657 363.065 251.124 363.676 249.993 364.76C248.862 365.845 248.224 367.314 248.219 368.848C248.224 370.382 248.862 371.851 249.993 372.936C251.124 374.02 252.657 374.631 254.257 374.636H265.559V363.06H254.257Z" fill="#3F3D56"/>
<path d="M275.932 363.06H264.94V374.636H275.932C277.532 374.631 279.065 374.02 280.196 372.936C281.327 371.851 281.965 370.382 281.97 368.848C281.965 367.314 281.327 365.845 280.196 364.76C279.065 363.676 277.532 363.065 275.932 363.06Z" fill="white"/>
<path opacity="0.2" d="M279.872 364.478C280.824 365.524 281.349 366.866 281.35 368.254C281.346 369.788 280.708 371.258 279.577 372.342C278.445 373.427 276.912 374.038 275.312 374.042H264.94V374.636H275.932C277.532 374.631 279.065 374.02 280.196 372.936C281.327 371.851 281.965 370.382 281.97 368.848C281.968 368.018 281.78 367.198 281.418 366.443C281.056 365.689 280.528 365.019 279.872 364.478Z" fill="black"/>
<path d="M305.257 275.88C304.156 274.767 302.641 274.117 301.041 274.072C299.442 274.026 297.889 274.59 296.722 275.638C295.561 276.694 294.883 278.146 294.835 279.679C294.788 281.212 295.376 282.701 296.47 283.82L304.222 291.703L313.009 283.763L305.257 275.88Z" fill="#3F3D56"/>
<path d="M320.124 290.999L312.584 283.331L303.797 291.271L311.337 298.939C312.438 300.052 313.953 300.702 315.553 300.747C317.152 300.792 318.705 300.229 319.872 299.18C321.033 298.125 321.711 296.672 321.759 295.139C321.806 293.606 321.218 292.118 320.124 290.999Z" fill="white"/>
<path opacity="0.2" d="M321.751 294.719C321.609 296.101 320.951 297.388 319.898 298.341C318.731 299.39 317.178 299.953 315.579 299.908C313.979 299.863 312.464 299.212 311.363 298.099L304.248 290.864L303.797 291.271L311.337 298.939C312.438 300.052 313.953 300.702 315.553 300.747C317.152 300.792 318.705 300.229 319.872 299.18C320.501 298.61 320.995 297.916 321.319 297.146C321.643 296.376 321.791 295.548 321.751 294.719Z" fill="black"/>
<path d="M273.087 294.131C271.986 293.018 270.471 292.368 268.871 292.323C267.272 292.277 265.719 292.841 264.552 293.889C263.391 294.945 262.713 296.397 262.665 297.93C262.618 299.463 263.206 300.952 264.3 302.071L272.052 309.954L280.839 302.014L273.087 294.131Z" fill="#3F3D56"/>
<path d="M287.954 309.249L280.414 301.582L271.627 309.522L279.167 317.19C280.268 318.302 281.783 318.953 283.383 318.998C284.982 319.043 286.535 318.48 287.702 317.431C288.863 316.376 289.541 314.923 289.589 313.39C289.636 311.857 289.048 310.369 287.954 309.249Z" fill="white"/>
<path opacity="0.2" d="M289.581 312.97C289.439 314.352 288.781 315.638 287.728 316.592C286.561 317.641 285.008 318.204 283.409 318.159C281.809 318.113 280.294 317.463 279.193 316.35L272.078 309.115L271.627 309.522L279.167 317.19C280.268 318.302 281.783 318.953 283.383 318.998C284.982 319.043 286.535 318.48 287.702 317.431C288.331 316.861 288.825 316.167 289.149 315.397C289.473 314.627 289.621 313.799 289.581 312.97Z" fill="black"/>
<path d="M305.257 311.123C304.156 310.01 302.641 309.36 301.041 309.315C299.442 309.27 297.889 309.833 296.722 310.881C295.561 311.937 294.883 313.39 294.835 314.923C294.788 316.456 295.376 317.944 296.47 319.063L304.222 326.946L313.009 319.006L305.257 311.123Z" fill="#3F3D56"/>
<path d="M320.124 326.242L312.584 318.574L303.797 326.515L311.337 334.182C312.438 335.295 313.953 335.945 315.553 335.99C317.152 336.035 318.705 335.472 319.872 334.423C321.033 333.368 321.711 331.915 321.759 330.382C321.806 328.849 321.218 327.361 320.124 326.242Z" fill="white"/>
<path opacity="0.2" d="M321.751 329.962C321.609 331.344 320.951 332.631 319.898 333.584C318.731 334.633 317.178 335.196 315.579 335.151C313.979 335.106 312.464 334.456 311.363 333.343L304.248 326.107L303.797 326.515L311.337 334.182C312.438 335.295 313.953 335.945 315.553 335.99C317.152 336.035 318.705 335.472 319.872 334.423C320.501 333.853 320.995 333.159 321.319 332.389C321.643 331.619 321.791 330.792 321.751 329.962Z" fill="black"/>
<path d="M324.882 347.289C326.03 346.221 326.69 344.76 326.717 343.227C326.745 341.693 326.139 340.212 325.031 339.105C323.916 338.005 322.392 337.373 320.792 337.346C319.193 337.32 317.647 337.901 316.493 338.963L308.364 346.49L316.753 354.816L324.882 347.289Z" fill="#3F3D56"/>
<path d="M309.292 361.724L317.199 354.403L308.809 346.077L300.903 353.398C299.756 354.466 299.096 355.927 299.068 357.46C299.04 358.994 299.647 360.475 300.755 361.582C301.87 362.682 303.393 363.314 304.993 363.341C306.593 363.367 308.138 362.786 309.292 361.724Z" fill="white"/>
<path opacity="0.2" d="M305.431 363.328C303.988 363.209 302.638 362.594 301.63 361.596C300.522 360.49 299.916 359.008 299.944 357.475C299.971 355.941 300.631 354.481 301.779 353.412L309.24 346.504L308.809 346.077L300.903 353.398C299.756 354.466 299.096 355.927 299.068 357.46C299.04 358.994 299.647 360.475 300.755 361.582C301.358 362.178 302.087 362.642 302.894 362.944C303.701 363.245 304.567 363.376 305.431 363.328Z" fill="black"/>
<path d="M281.551 329.039C282.699 327.97 283.359 326.509 283.386 324.976C283.414 323.442 282.808 321.961 281.7 320.855C280.585 319.755 279.061 319.122 277.461 319.096C275.862 319.069 274.316 319.65 273.162 320.712L265.033 328.239L273.422 336.565L281.551 329.039Z" fill="#3F3D56"/>
<path d="M265.961 343.473L273.868 336.153L265.478 327.826L257.572 335.147C256.424 336.215 255.765 337.676 255.737 339.209C255.709 340.743 256.316 342.224 257.424 343.331C258.539 344.431 260.062 345.063 261.662 345.09C263.262 345.116 264.807 344.535 265.961 343.473Z" fill="white"/>
<path opacity="0.2" d="M262.1 345.077C260.657 344.958 259.307 344.343 258.299 343.345C257.191 342.239 256.585 340.757 256.613 339.224C256.64 337.69 257.3 336.23 258.448 335.161L265.909 328.253L265.478 327.826L257.572 335.147C256.424 336.215 255.765 337.676 255.737 339.209C255.709 340.743 256.316 342.224 257.424 343.331C258.026 343.927 258.756 344.391 259.563 344.693C260.37 344.994 261.236 345.125 262.1 345.077Z" fill="black"/>
<path d="M343.265 307.012C344.413 305.943 345.073 304.482 345.1 302.949C345.128 301.415 344.522 299.934 343.414 298.828C342.299 297.728 340.775 297.095 339.175 297.069C337.576 297.042 336.03 297.623 334.876 298.685L326.747 306.212L335.136 314.538L343.265 307.012Z" fill="#3F3D56"/>
<path d="M327.675 321.446L335.582 314.126L327.192 305.799L319.286 313.12C318.138 314.188 317.479 315.649 317.451 317.182C317.423 318.716 318.03 320.197 319.138 321.304C320.253 322.404 321.776 323.036 323.376 323.063C324.976 323.089 326.521 322.508 327.675 321.446Z" fill="white"/>
<path opacity="0.2" d="M323.814 323.05C322.371 322.931 321.021 322.316 320.013 321.318C318.905 320.212 318.299 318.73 318.327 317.197C318.354 315.663 319.014 314.203 320.162 313.134L327.623 306.226L327.192 305.799L319.286 313.12C318.138 314.188 317.479 315.649 317.451 317.182C317.423 318.716 318.03 320.197 319.138 321.304C319.74 321.9 320.47 322.364 321.277 322.666C322.084 322.967 322.95 323.098 323.814 323.05Z" fill="black"/>
<path d="M329.549 352.66C328.448 351.547 326.932 350.897 325.333 350.851C323.734 350.806 322.181 351.369 321.013 352.418C319.852 353.473 319.174 354.926 319.127 356.459C319.08 357.992 319.667 359.481 320.761 360.6L328.514 368.483L337.301 360.543L329.549 352.66Z" fill="#3F3D56"/>
<path d="M344.416 367.778L336.876 360.111L328.089 368.051L335.629 375.718C336.73 376.831 338.245 377.481 339.844 377.527C341.444 377.572 342.996 377.009 344.164 375.96C345.325 374.905 346.003 373.452 346.05 371.919C346.097 370.386 345.51 368.897 344.416 367.778Z" fill="white"/>
<path opacity="0.2" d="M346.042 371.499C345.901 372.881 345.243 374.167 344.19 375.121C343.022 376.169 341.469 376.733 339.87 376.687C338.271 376.642 336.755 375.992 335.655 374.879L328.54 367.644L328.089 368.051L335.629 375.718C336.73 376.831 338.245 377.481 339.844 377.527C341.444 377.572 342.996 377.009 344.164 375.96C344.793 375.389 345.287 374.696 345.611 373.926C345.935 373.156 346.082 372.328 346.042 371.499Z" fill="black"/>
<path d="M286.874 352.03C285.773 350.917 284.258 350.267 282.658 350.222C281.059 350.177 279.506 350.74 278.339 351.789C277.178 352.844 276.5 354.297 276.453 355.83C276.405 357.363 276.993 358.851 278.087 359.97L285.839 367.854L294.626 359.914L286.874 352.03Z" fill="#3F3D56"/>
<path d="M301.741 367.149L294.202 359.482L285.414 367.422L292.954 375.089C294.055 376.202 295.571 376.852 297.17 376.897C298.769 376.943 300.322 376.379 301.489 375.331C302.65 374.275 303.329 372.823 303.376 371.29C303.423 369.757 302.835 368.268 301.741 367.149Z" fill="white"/>
<path opacity="0.2" d="M303.368 370.869C303.227 372.252 302.568 373.538 301.515 374.491C300.348 375.54 298.795 376.103 297.196 376.058C295.596 376.013 294.081 375.363 292.98 374.25L285.865 367.015L285.414 367.422L292.954 375.089C294.055 376.202 295.571 376.852 297.17 376.897C298.769 376.943 300.322 376.379 301.489 375.331C302.119 374.76 302.612 374.066 302.936 373.296C303.26 372.527 303.408 371.699 303.368 370.869Z" fill="black"/>
<path d="M298.886 331.266C298.887 333.19 298.194 335.056 296.924 336.546C295.655 338.037 293.887 339.061 291.92 339.446C290.771 339.669 289.587 339.669 288.437 339.446C286.47 339.061 284.703 338.036 283.434 336.546C282.164 335.055 281.471 333.19 281.471 331.266C281.471 329.342 282.164 327.477 283.434 325.986C284.703 324.496 286.47 323.471 288.437 323.086C289.587 322.863 290.771 322.863 291.92 323.086C293.887 323.471 295.655 324.495 296.924 325.986C298.194 327.477 298.887 329.342 298.886 331.266Z" fill="white"/>
<path opacity="0.2" d="M291.92 323.086V339.446C290.771 339.669 289.587 339.669 288.437 339.446V323.086C289.587 322.863 290.771 322.863 291.92 323.086Z" fill="black"/>
<path d="M302.826 297.911C302.826 299.835 302.133 301.701 300.863 303.191C299.594 304.682 297.826 305.706 295.859 306.091C294.71 306.314 293.526 306.314 292.376 306.091C290.41 305.706 288.642 304.681 287.373 303.191C286.103 301.7 285.41 299.835 285.41 297.911C285.41 295.987 286.103 294.122 287.373 292.631C288.642 291.141 290.41 290.116 292.376 289.731C293.526 289.508 294.71 289.508 295.859 289.731C297.826 290.116 299.594 291.14 300.863 292.631C302.133 294.121 302.826 295.987 302.826 297.911Z" fill="white"/>
<path opacity="0.2" d="M295.859 289.731V306.091C294.71 306.314 293.526 306.314 292.376 306.091V289.731C293.526 289.508 294.71 289.508 295.859 289.731Z" fill="black"/>
<path d="M302.826 345.741C302.826 347.665 302.133 349.531 300.863 351.021C299.594 352.512 297.826 353.536 295.859 353.921C294.71 354.144 293.526 354.144 292.376 353.921C290.41 353.536 288.642 352.511 287.373 351.021C286.103 349.53 285.41 347.665 285.41 345.741C285.41 343.817 286.103 341.952 287.373 340.461C288.642 338.971 290.41 337.946 292.376 337.561C293.526 337.338 294.71 337.338 295.859 337.561C297.826 337.946 299.594 338.97 300.863 340.461C302.133 341.952 302.826 343.817 302.826 345.741Z" fill="white"/>
<path opacity="0.2" d="M295.859 337.561V353.921C294.71 354.144 293.526 354.144 292.376 353.921V337.561C293.526 337.338 294.71 337.338 295.859 337.561Z" fill="black"/>
<path d="M324.491 369.027C324.491 370.951 323.798 372.816 322.529 374.307C321.259 375.798 319.492 376.822 317.525 377.207C316.375 377.429 315.191 377.429 314.042 377.207C312.075 376.822 310.308 375.797 309.038 374.306C307.769 372.816 307.076 370.951 307.076 369.027C307.076 367.103 307.769 365.237 309.038 363.747C310.308 362.256 312.075 361.232 314.042 360.847C315.191 360.624 316.375 360.624 317.525 360.847C319.492 361.231 321.259 362.256 322.529 363.747C323.798 365.237 324.491 367.102 324.491 369.027Z" fill="white"/>
<path opacity="0.2" d="M317.525 360.847V377.207C316.375 377.429 315.191 377.429 314.042 377.207V360.847C315.191 360.624 316.375 360.624 317.525 360.847Z" fill="black"/>
<path d="M343.63 326.184C345.076 327.519 345.996 329.292 346.234 331.202C346.473 333.113 346.016 335.044 344.94 336.668C344.309 337.616 343.488 338.434 342.523 339.072C340.869 340.162 338.872 340.671 336.872 340.513C334.871 340.355 332.989 339.539 331.544 338.204C330.099 336.868 329.179 335.095 328.941 333.185C328.702 331.274 329.159 329.343 330.234 327.719C330.865 326.771 331.687 325.954 332.652 325.315C334.306 324.224 336.302 323.715 338.302 323.874C340.303 324.032 342.185 324.848 343.63 326.184Z" fill="white"/>
<path opacity="0.2" d="M332.652 325.315L344.94 336.668C344.309 337.616 343.488 338.434 342.523 339.072L330.234 327.719C330.865 326.771 331.687 325.954 332.652 325.315Z" fill="black"/>
<path d="M346.256 344.435C347.702 345.77 348.622 347.543 348.86 349.453C349.099 351.364 348.642 353.295 347.566 354.919C346.936 355.867 346.114 356.685 345.149 357.323C343.495 358.413 341.499 358.922 339.498 358.764C337.498 358.606 335.616 357.79 334.17 356.454C332.725 355.119 331.805 353.346 331.567 351.436C331.328 349.525 331.785 347.594 332.86 345.97C333.491 345.022 334.313 344.205 335.278 343.566C336.932 342.475 338.928 341.966 340.928 342.125C342.929 342.283 344.811 343.099 346.256 344.435Z" fill="white"/>
<path opacity="0.2" d="M335.278 343.566L347.566 354.919C346.936 355.867 346.114 356.685 345.149 357.323L332.861 345.97C333.491 345.022 334.313 344.205 335.278 343.566Z" fill="black"/>
<path d="M268.129 348.84C269.575 350.175 270.495 351.948 270.733 353.859C270.972 355.769 270.515 357.7 269.439 359.325C268.808 360.273 267.986 361.09 267.022 361.729C265.367 362.819 263.371 363.328 261.371 363.169C259.37 363.011 257.488 362.195 256.043 360.86C254.598 359.525 253.678 357.752 253.439 355.841C253.201 353.931 253.658 352 254.733 350.375C255.364 349.427 256.186 348.61 257.15 347.971C258.804 346.881 260.801 346.372 262.801 346.53C264.802 346.688 266.684 347.504 268.129 348.84Z" fill="white"/>
<path opacity="0.2" d="M257.15 347.971L269.439 359.325C268.808 360.273 267.986 361.09 267.022 361.729L254.733 350.375C255.364 349.427 256.186 348.61 257.15 347.971Z" fill="black"/>
<path opacity="0.2" d="M240.023 198.939H236.74V222.224H240.023V198.939Z" fill="black"/>
<path opacity="0.2" d="M259.063 198.939H255.78V222.224H259.063V198.939Z" fill="black"/>
<path opacity="0.2" d="M278.102 198.939H274.819V222.224H278.102V198.939Z" fill="black"/>
<path opacity="0.2" d="M297.141 198.939H293.859V222.224H297.141V198.939Z" fill="black"/>
<path opacity="0.2" d="M316.181 198.939H312.898V222.224H316.181V198.939Z" fill="black"/>
<path opacity="0.2" d="M335.22 198.939H331.938V222.224H335.22V198.939Z" fill="black"/>
<path opacity="0.2" d="M354.26 198.939H350.977V222.224H354.26V198.939Z" fill="black"/>
</g>
<defs>
<filter id="filter0_d" x="0" y="0" width="591" height="397" filterUnits="userSpaceOnUse" color-interpolation-filters="sRGB">
<feFlood flood-opacity="0" result="BackgroundImageFix"/>
<feColorMatrix in="SourceAlpha" type="matrix" values="0 0 0 0 0 0 0 0 0 0 0 0 0 0 0 0 0 0 127 0" result="hardAlpha"/>
<feOffset dy="4"/>
<feGaussianBlur stdDeviation="2"/>
<feComposite in2="hardAlpha" operator="out"/>
<feColorMatrix type="matrix" values="0 0 0 0 0 0 0 0 0 0 0 0 0 0 0 0 0 0 0.25 0"/>
<feBlend mode="normal" in2="BackgroundImageFix" result="effect1_dropShadow"/>
<feBlend mode="normal" in="SourceGraphic" in2="effect1_dropShadow" result="shape"/>
</filter>
</defs>
</svg>
